# xmcd
#
# Track frame offsets:
#	183
#	23123
#	35940
#	48030
#	62453
#	73908
#	86005
#	98455
#	109363
#	121918
#	133993
#	146835
#	158323
#	173463
#	185183
#	197923
#
# Disc length: 2844 seconds
#
# Revision: 5
# Processed by: cddbd v1.5.1PL0 Copyright (c) Steve Scherf et al.
# Submitted via: MusicWizard 7.1.1b
#
DISCID=e10b1a10
DTITLE=Ray Charles - The Best Of Ray Charles
DYEAR=1900
DGENRE=Rhythm and Blues
TTITLE0=What´d I Say
TTITLE1=I´ve Got A Woman
TTITLE2=Mess Around
TTITLE3=Losing Hand
TTITLE4=Hallelujah I Love Her So
TTITLE5=Leave My Woman Alone
TTITLE6=That´s Enough
TTITLE7=You Be My Baby
TTITLE8=Tell The Truth
TTITLE9=It Should´ve Been Me
TTITLE10=Greenbacks
TTITLE11=This Little Girl Of Mine
TTITLE12=Drown In My Own Tears
TTITLE13=Lonely Avenue
TTITLE14=Talkin´ Bount You
TTITLE15=The Right Time
EXTD=
EXTT0=Yesterday: 31.03.94 , 15.10.99
EXTT1=Yesterday: 09.07.1999
EXTT2=
EXTT3=
EXTT4=
EXTT5=
EXTT6=
EXTT7=
EXTT8=
EXTT9=
EXTT10=
EXTT11=
EXTT12=
EXTT13=
EXTT14=
EXTT15=
PLAYORDER=
